<svg width="63" height="93" viewBox="0 0 63 93" fill="none" xmlns="http://www.w3.org/2000/svg">
	<path d="M28 0H2C0.895431 0 0 0.89543 0 2V62.1716C0 62.702 0.210713 63.2107 0.585786 63.5858L29.4142 92.4142C29.7893 92.7893 30.298 93 30.8284 93H61C62.1046 93 63 92.1046 63 91V65C63 63.8954 62.1046 63 61 63H30V2C30 0.895431 29.1046 0 28 0Z"
	      fill="#0FCDAA"/>
	<path d="M61 63H30V92.8214C30.418 93 30.5937 93 31 93H61C62.1046 93 63 92.1046 63 91V65C63 63.8954 62.1046 63 61 63Z"
	      fill="#0DAB8E"/>
</svg>
