<svg width="93" height="93" viewBox="0 0 93 93" fill="none" xmlns="http://www.w3.org/2000/svg">
	<path d="M43 0H17C15.8954 0 15 0.89543 15 2V62.1716C15 62.702 15.2107 63.2107 15.5858 63.5858L44.4142 92.4142C44.7893 92.7893 45.298 93 45.8284 93H76C77.1046 93 78 92.1046 78 91V65C78 63.8954 77.1046 63 76 63H45V2C45 0.895431 44.1046 0 43 0Z"
	      fill="#A5A5A5"/>
	<path d="M76 63H45V92.8214C45.418 93 45.5937 93 46 93H76C77.1046 93 78 92.1046 78 91V65C78 63.8954 77.1046 63 76 63Z"
	      fill="#6B6B6B"/>
</svg>
